# xmcd
#
# Track frame offsets:
#	150
#	13302
#	22779
#	27549
#	38275
#	48640
#	65667
#	82356
#	98605
#	108639
#	127685
#	144934
#	151733
#	171910
#	175560
#	194051
#	213197
#
# Disc length: 3067 seconds
#
# Revision: 1
# Processed by: cddbd v1.5.1PL0 Copyright (c) Steve Scherf et al.
# Submitted via: audiograbber 1.83.01
#
DISCID=dd0bf911
DTITLE=Tatjana Clasing - That´s Life
DYEAR=2001
DGENRE=
TTITLE0=Come fly with me
TTITLE1=I feel a song
TTITLE2=Yesterday
TTITLE3=Ipanema
TTITLE4=The Lady is a Tramp
TTITLE5=I wanna be evil
TTITLE6=Gipsy in my Soul
TTITLE7=The man I love
TTITLE8=From this moment on
TTITLE9=My own space
TTITLE10=Think
TTITLE11=Sorry I asked
TTITLE12=The man That Got Away
TTITLE13=By myself
TTITLE14=All by myself
TTITLE15=This is my Life
TTITLE16=That´s Life
EXTD=
EXTT0=
EXTT1=
EXTT2=
EXTT3=
EXTT4=
EXTT5=
EXTT6=
EXTT7=
EXTT8=
EXTT9=
EXTT10=
EXTT11=
EXTT12=
EXTT13=
EXTT14=
EXTT15=
EXTT16=
PLAYORDER=
